<svg width="364" height="364" viewBox="0 0 364 364" fill="none" xmlns="http://www.w3.org/2000/svg">
<rect x="182" y="0.980225" width="190" height="190" rx="6" transform="rotate(45 182 0.980225)" fill="#90C338"/>
<rect x="182.707" y="93.6112" width="190" height="190" rx="6" transform="rotate(45 182.707 93.6112)" fill="#199BCF"/>
<path d="M68.0781 155.914L93.8658 181.702L157.12 118.448C157.12 118.448 161.033 115.894 165.901 115.734C169.038 115.631 174.911 115.286 177.587 117.7C180.776 120.579 183.437 122.153 185.93 126.044C187.707 128.817 189.516 136.11 189.516 136.11L189.362 140.815L188.449 144.761L186.32 147.648L184.192 150.535L112.916 221.811L138.704 247.598L200.26 186.042C200.26 186.042 205.993 179.217 209.325 176.977C213.465 174.194 214.816 173.378 219.649 172.722C223.634 172.18 226.045 173.33 229.61 174.895C233.055 176.408 233.96 177.313 236.563 179.917L236.644 179.997C238.421 181.774 239.709 184.097 240.987 186.272C243.118 189.898 243.404 191.901 243.161 196.234C242.952 199.961 240.318 206.662 240.318 206.662L169.043 277.937L193.313 302.208L270.258 225.263C270.258 225.263 274.154 220.178 276.187 216.3C277.858 213.112 280.291 208.232 281.304 203.599C282.915 196.229 283.082 191.376 282.732 183.968C282.494 178.946 280.064 176.333 278.282 171.731C275.945 165.694 273.501 162.796 269.335 157.924C266.884 155.058 265.376 153.549 262.509 151.098C257.637 146.932 254.477 145.02 248.702 142.151C244.637 140.131 242.245 139.164 237.878 137.806C233.15 136.335 228.951 138.471 225.434 135.081C222.463 132.218 221.847 125.015 221.847 125.015C221.847 125.015 219.325 115.7 213.813 107.262C208.301 98.8229 201.426 92.5658 195.61 89.0586C189.794 85.5514 186.078 84.1116 179.374 82.5414C170.55 80.475 165.066 80.2247 155.899 81.7453C147.222 83.1846 134.494 89.4982 134.494 89.4982L68.0781 155.914Z" fill="white"/>
</svg>
