<svg width="687" height="363" viewBox="0 0 687 363" fill="none" xmlns="http://www.w3.org/2000/svg">
<rect x="180.646" y="0.834229" width="190" height="190" rx="6" transform="rotate(45 180.646 0.834229)" fill="#90C338"/>
<rect x="181.354" y="93.4652" width="190" height="190" rx="6" transform="rotate(45 181.354 93.4652)" fill="#199BCF"/>
<path d="M66.7251 155.768L92.5127 181.556L155.767 118.302C155.767 118.302 159.68 115.748 164.548 115.588C167.685 115.485 173.558 115.14 176.234 117.555C179.423 120.433 182.084 122.007 184.577 125.898C186.354 128.671 188.163 135.964 188.163 135.964L188.009 140.669L187.096 144.616L184.967 147.502L182.839 150.389L111.563 221.665L137.351 247.452L198.907 185.896C198.907 185.896 204.64 179.072 207.972 176.831C212.112 174.048 213.463 173.232 218.296 172.576C222.281 172.034 224.692 173.184 228.257 174.749C231.702 176.262 232.607 177.167 235.21 179.771L235.291 179.851C237.068 181.628 238.356 183.951 239.634 186.126C241.765 189.752 242.051 191.755 241.808 196.088C241.599 199.815 238.965 206.516 238.965 206.516L167.689 277.791L191.96 302.062L268.905 225.117C268.905 225.117 272.801 220.032 274.834 216.154C276.505 212.966 278.938 208.086 279.951 203.453C281.561 196.083 281.729 191.23 281.379 183.822C281.141 178.8 278.711 176.187 276.929 171.585C274.592 165.548 272.148 162.65 267.982 157.778C265.531 154.912 264.023 153.403 261.156 150.952C256.284 146.786 253.124 144.874 247.349 142.005C243.284 139.985 240.892 139.018 236.525 137.66C231.797 136.189 227.598 138.325 224.081 134.935C221.11 132.072 220.494 124.869 220.494 124.869C220.494 124.869 217.972 115.554 212.46 107.116C206.948 98.6769 200.073 92.4198 194.257 88.9126C188.441 85.4054 184.725 83.9656 178.021 82.3954C169.197 80.329 163.713 80.0787 154.546 81.5993C145.869 83.0386 133.141 89.3522 133.141 89.3522L66.7251 155.768Z" fill="white"/>
<g filter="url(#filter0_d_1_13)">
<path d="M327.15 113.57C327.15 110.417 328.067 107.923 329.9 106.09C331.733 104.257 334.227 103.34 337.38 103.34H373.68C374.193 104.147 374.633 105.21 375 106.53C375.44 107.85 375.66 109.243 375.66 110.71C375.66 113.497 375.037 115.477 373.79 116.65C372.617 117.823 371.04 118.41 369.06 118.41H345.85V128.64H370.6C371.113 129.447 371.553 130.51 371.92 131.83C372.36 133.077 372.58 134.433 372.58 135.9C372.58 138.687 371.993 140.667 370.82 141.84C369.647 143.013 368.07 143.6 366.09 143.6H345.85V155.15H374.12C374.633 155.957 375.073 157.02 375.44 158.34C375.88 159.66 376.1 161.053 376.1 162.52C376.1 165.307 375.477 167.323 374.23 168.57C373.057 169.743 371.48 170.33 369.5 170.33H337.38C334.227 170.33 331.733 169.413 329.9 167.58C328.067 165.747 327.15 163.253 327.15 160.1V113.57ZM382.062 143.27C382.062 138.43 382.796 134.25 384.262 130.73C385.729 127.137 387.746 124.167 390.312 121.82C392.952 119.473 395.996 117.75 399.442 116.65C402.962 115.477 406.739 114.89 410.772 114.89C412.239 114.89 413.669 115.037 415.062 115.33C416.456 115.55 417.592 115.843 418.472 116.21V98.39C419.206 98.17 420.379 97.95 421.992 97.73C423.606 97.4367 425.256 97.29 426.942 97.29C428.556 97.29 429.986 97.4 431.232 97.62C432.552 97.84 433.652 98.28 434.532 98.94C435.412 99.6 436.072 100.517 436.512 101.69C436.952 102.79 437.172 104.257 437.172 106.09V158.23C437.172 161.677 435.559 164.427 432.332 166.48C430.206 167.873 427.456 169.083 424.082 170.11C420.709 171.21 416.822 171.76 412.422 171.76C407.656 171.76 403.366 171.1 399.552 169.78C395.812 168.46 392.622 166.553 389.982 164.06C387.416 161.567 385.436 158.597 384.042 155.15C382.722 151.63 382.062 147.67 382.062 143.27ZM413.302 129.52C409.342 129.52 406.299 130.657 404.172 132.93C402.046 135.203 400.982 138.65 400.982 143.27C400.982 147.817 401.972 151.263 403.952 153.61C405.932 155.883 408.792 157.02 412.532 157.02C413.852 157.02 415.026 156.837 416.052 156.47C417.152 156.03 417.996 155.553 418.582 155.04V130.84C417.116 129.96 415.356 129.52 413.302 129.52ZM474.895 114.89C479.075 114.89 482.852 115.44 486.225 116.54C489.672 117.567 492.569 118.923 494.915 120.61C496.382 121.637 497.519 122.773 498.325 124.02C499.205 125.267 499.645 126.88 499.645 128.86V167.36C499.645 171.247 498.912 174.583 497.445 177.37C495.979 180.23 493.962 182.577 491.395 184.41C488.902 186.317 485.932 187.71 482.485 188.59C479.112 189.47 475.482 189.91 471.595 189.91C464.922 189.91 459.679 188.993 455.865 187.16C452.052 185.4 450.145 182.503 450.145 178.47C450.145 176.783 450.475 175.28 451.135 173.96C451.869 172.713 452.675 171.76 453.555 171.1C455.682 172.273 458.065 173.263 460.705 174.07C463.419 174.877 466.205 175.28 469.065 175.28C473.025 175.28 476.179 174.62 478.525 173.3C480.872 171.98 482.045 169.853 482.045 166.92V165.16C479.039 166.48 475.372 167.14 471.045 167.14C467.745 167.14 464.592 166.663 461.585 165.71C458.652 164.683 456.049 163.143 453.775 161.09C451.575 158.963 449.779 156.25 448.385 152.95C447.065 149.65 446.405 145.727 446.405 141.18C446.405 136.707 447.102 132.82 448.495 129.52C449.962 126.22 451.942 123.507 454.435 121.38C457.002 119.18 460.009 117.567 463.455 116.54C466.975 115.44 470.789 114.89 474.895 114.89ZM481.715 130.84C481.202 130.547 480.432 130.253 479.405 129.96C478.452 129.667 477.242 129.52 475.775 129.52C472.182 129.52 469.469 130.547 467.635 132.6C465.875 134.58 464.995 137.44 464.995 141.18C464.995 145.433 465.875 148.513 467.635 150.42C469.469 152.253 471.779 153.17 474.565 153.17C477.572 153.17 479.955 152.473 481.715 151.08V130.84ZM539.508 171.76C535.181 171.76 531.148 171.173 527.408 170C523.741 168.753 520.514 166.92 517.728 164.5C515.014 162.08 512.851 159.037 511.238 155.37C509.698 151.703 508.928 147.413 508.928 142.5C508.928 137.66 509.698 133.517 511.238 130.07C512.851 126.55 514.941 123.69 517.508 121.49C520.074 119.217 523.008 117.567 526.308 116.54C529.608 115.44 532.981 114.89 536.428 114.89C540.314 114.89 543.834 115.477 546.988 116.65C550.214 117.823 552.964 119.437 555.238 121.49C557.584 123.543 559.381 126 560.628 128.86C561.948 131.72 562.608 134.837 562.608 138.21C562.608 140.703 561.911 142.61 560.518 143.93C559.124 145.25 557.181 146.093 554.688 146.46L527.518 150.53C528.324 152.95 529.974 154.783 532.468 156.03C534.961 157.203 537.821 157.79 541.048 157.79C544.054 157.79 546.878 157.423 549.518 156.69C552.231 155.883 554.431 154.967 556.118 153.94C557.291 154.673 558.281 155.7 559.088 157.02C559.894 158.34 560.298 159.733 560.298 161.2C560.298 164.5 558.758 166.957 555.678 168.57C553.331 169.817 550.691 170.66 547.758 171.1C544.824 171.54 542.074 171.76 539.508 171.76ZM536.428 128.53C534.668 128.53 533.128 128.823 531.808 129.41C530.561 129.997 529.534 130.767 528.728 131.72C527.921 132.6 527.298 133.627 526.858 134.8C526.491 135.9 526.271 137.037 526.198 138.21L545.008 135.13C544.788 133.663 543.981 132.197 542.588 130.73C541.194 129.263 539.141 128.53 536.428 128.53Z" fill="#0E0404" fill-opacity="0.88" shape-rendering="crispEdges"/>
<path d="M373.68 103.34L374.102 103.072L373.954 102.84H373.68V103.34ZM375 106.53L374.518 106.664L374.522 106.676L374.526 106.688L375 106.53ZM373.79 116.65L373.447 116.286L373.442 116.291L373.436 116.296L373.79 116.65ZM345.85 118.41V117.91H345.35V118.41H345.85ZM345.85 128.64H345.35V129.14H345.85V128.64ZM370.6 128.64L371.022 128.372L370.874 128.14H370.6V128.64ZM371.92 131.83L371.438 131.964L371.443 131.98L371.449 131.996L371.92 131.83ZM345.85 143.6V143.1H345.35V143.6H345.85ZM345.85 155.15H345.35V155.65H345.85V155.15ZM374.12 155.15L374.542 154.882L374.394 154.65H374.12V155.15ZM375.44 158.34L374.958 158.474L374.962 158.486L374.966 158.498L375.44 158.34ZM374.23 168.57L373.876 168.216L373.876 168.216L374.23 168.57ZM329.9 167.58L330.254 167.226L330.254 167.226L329.9 167.58ZM327.65 113.57C327.65 110.519 328.534 108.164 330.254 106.444L329.546 105.736C327.6 107.683 326.65 110.315 326.65 113.57H327.65ZM330.254 106.444C331.974 104.724 334.329 103.84 337.38 103.84V102.84C334.125 102.84 331.493 103.79 329.546 105.736L330.254 106.444ZM337.38 103.84H373.68V102.84H337.38V103.84ZM373.258 103.608C373.736 104.36 374.16 105.373 374.518 106.664L375.482 106.396C375.107 105.047 374.65 103.934 374.102 103.072L373.258 103.608ZM374.526 106.688C374.948 107.954 375.16 109.294 375.16 110.71H376.16C376.16 109.193 375.932 107.746 375.474 106.372L374.526 106.688ZM375.16 110.71C375.16 113.442 374.546 115.252 373.447 116.286L374.133 117.014C375.528 115.701 376.16 113.551 376.16 110.71H375.16ZM373.436 116.296C372.375 117.358 370.935 117.91 369.06 117.91V118.91C371.145 118.91 372.859 118.288 374.144 117.004L373.436 116.296ZM369.06 117.91H345.85V118.91H369.06V117.91ZM345.35 118.41V128.64H346.35V118.41H345.35ZM345.85 129.14H370.6V128.14H345.85V129.14ZM370.178 128.908C370.656 129.66 371.08 130.673 371.438 131.964L372.402 131.696C372.027 130.347 371.57 129.234 371.022 128.372L370.178 128.908ZM371.449 131.996C371.868 133.184 372.08 134.484 372.08 135.9H373.08C373.08 134.383 372.852 132.969 372.391 131.664L371.449 131.996ZM372.08 135.9C372.08 138.639 371.499 140.453 370.466 141.486L371.174 142.194C372.487 140.88 373.08 138.734 373.08 135.9H372.08ZM370.466 141.486C369.405 142.548 367.965 143.1 366.09 143.1V144.1C368.175 144.1 369.889 143.478 371.174 142.194L370.466 141.486ZM366.09 143.1H345.85V144.1H366.09V143.1ZM345.35 143.6V155.15H346.35V143.6H345.35ZM345.85 155.65H374.12V154.65H345.85V155.65ZM373.698 155.418C374.176 156.17 374.6 157.183 374.958 158.474L375.922 158.206C375.547 156.857 375.09 155.744 374.542 154.882L373.698 155.418ZM374.966 158.498C375.388 159.764 375.6 161.104 375.6 162.52H376.6C376.6 161.003 376.372 159.556 375.914 158.182L374.966 158.498ZM375.6 162.52C375.6 165.249 374.987 167.106 373.876 168.216L374.584 168.924C375.966 167.541 376.6 165.365 376.6 162.52H375.6ZM373.876 168.216C372.815 169.278 371.375 169.83 369.5 169.83V170.83C371.585 170.83 373.299 170.208 374.584 168.924L373.876 168.216ZM369.5 169.83H337.38V170.83H369.5V169.83ZM337.38 169.83C334.329 169.83 331.974 168.946 330.254 167.226L329.546 167.934C331.493 169.88 334.125 170.83 337.38 170.83V169.83ZM330.254 167.226C328.534 165.506 327.65 163.151 327.65 160.1H326.65C326.65 163.355 327.6 165.987 329.546 167.934L330.254 167.226ZM327.65 160.1V113.57H326.65V160.1H327.65ZM384.262 130.73L384.724 130.922L384.725 130.919L384.262 130.73ZM390.312 121.82L389.98 121.446L389.975 121.451L390.312 121.82ZM399.442 116.65L399.594 117.126L399.6 117.124L399.442 116.65ZM415.062 115.33L414.959 115.819L414.972 115.822L414.984 115.824L415.062 115.33ZM418.472 116.21L418.28 116.672L418.972 116.96V116.21H418.472ZM418.472 98.39L418.329 97.9111L417.972 98.018V98.39H418.472ZM421.992 97.73L422.06 98.2254L422.071 98.2239L422.082 98.2219L421.992 97.73ZM431.232 97.62L431.145 98.1124L431.15 98.1132L431.232 97.62ZM434.532 98.94L434.232 99.34L434.232 99.34L434.532 98.94ZM436.512 101.69L436.044 101.866L436.048 101.876L436.512 101.69ZM432.332 166.48L432.064 166.058L432.058 166.062L432.332 166.48ZM424.082 170.11L423.937 169.632L423.927 169.635L424.082 170.11ZM399.552 169.78L399.386 170.252L399.389 170.252L399.552 169.78ZM389.982 164.06L389.634 164.419L389.639 164.424L389.982 164.06ZM384.042 155.15L383.574 155.326L383.579 155.337L384.042 155.15ZM404.172 132.93L404.537 133.272L404.537 133.272L404.172 132.93ZM403.952 153.61L403.57 153.932L403.575 153.938L403.952 153.61ZM416.052 156.47L416.221 156.941L416.229 156.938L416.238 156.934L416.052 156.47ZM418.582 155.04L418.912 155.416L419.082 155.267V155.04H418.582ZM418.582 130.84H419.082V130.557L418.84 130.411L418.582 130.84ZM382.562 143.27C382.562 138.479 383.288 134.367 384.724 130.922L383.801 130.538C382.303 134.133 381.562 138.381 381.562 143.27H382.562ZM384.725 130.919C386.167 127.386 388.144 124.48 390.65 122.189L389.975 121.451C387.348 123.853 385.291 126.887 383.799 130.541L384.725 130.919ZM390.645 122.194C393.231 119.895 396.213 118.206 399.594 117.126L399.29 116.174C395.779 117.294 392.674 119.052 389.98 121.446L390.645 122.194ZM399.6 117.124C403.065 115.969 406.788 115.39 410.772 115.39V114.39C406.69 114.39 402.859 114.984 399.284 116.176L399.6 117.124ZM410.772 115.39C412.205 115.39 413.601 115.533 414.959 115.819L415.165 114.841C413.737 114.54 412.273 114.39 410.772 114.39V115.39ZM414.984 115.824C416.355 116.04 417.45 116.326 418.28 116.672L418.665 115.748C417.735 115.361 416.556 115.06 415.14 114.836L414.984 115.824ZM418.972 116.21V98.39H417.972V116.21H418.972ZM418.616 98.8689C419.31 98.6608 420.45 98.4449 422.06 98.2254L421.925 97.2346C420.308 97.4551 419.102 97.6792 418.329 97.9111L418.616 98.8689ZM422.082 98.2219C423.665 97.9341 425.285 97.79 426.942 97.79V96.79C425.227 96.79 423.547 96.9392 421.903 97.2381L422.082 98.2219ZM426.942 97.79C428.534 97.79 429.934 97.8986 431.145 98.1124L431.319 97.1276C430.037 96.9014 428.577 96.79 426.942 96.79V97.79ZM431.15 98.1132C432.408 98.3228 433.429 98.7374 434.232 99.34L434.832 98.54C433.876 97.8226 432.697 97.3572 431.315 97.1268L431.15 98.1132ZM434.232 99.34C435.026 99.9351 435.633 100.769 436.044 101.866L436.981 101.514C436.512 100.265 435.799 99.2649 434.832 98.54L434.232 99.34ZM436.048 101.876C436.455 102.893 436.672 104.289 436.672 106.09H437.672C437.672 104.224 437.45 102.687 436.977 101.504L436.048 101.876ZM436.672 106.09V158.23H437.672V106.09H436.672ZM436.672 158.23C436.672 161.485 435.165 164.085 432.064 166.058L432.601 166.902C435.953 164.769 437.672 161.869 437.672 158.23H436.672ZM432.058 166.062C429.983 167.421 427.281 168.614 423.937 169.632L424.228 170.588C427.631 169.553 430.428 168.325 432.606 166.898L432.058 166.062ZM423.927 169.635C420.614 170.715 416.782 171.26 412.422 171.26V172.26C416.863 172.26 420.804 171.705 424.237 170.585L423.927 169.635ZM412.422 171.26C407.702 171.26 403.468 170.606 399.716 169.308L399.389 170.252C403.263 171.594 407.61 172.26 412.422 172.26V171.26ZM399.719 169.309C396.038 168.01 392.91 166.138 390.326 163.696L389.639 164.424C392.334 166.969 395.586 168.91 399.386 170.251L399.719 169.309ZM390.331 163.701C387.816 161.258 385.874 158.347 384.506 154.963L383.579 155.337C384.997 158.846 387.015 161.875 389.634 164.419L390.331 163.701ZM384.511 154.974C383.215 151.519 382.562 147.62 382.562 143.27H381.562C381.562 147.72 382.23 151.741 383.574 155.326L384.511 154.974ZM413.302 129.02C409.244 129.02 406.053 130.188 403.807 132.588L404.537 133.272C406.545 131.125 409.441 130.02 413.302 130.02V129.02ZM403.807 132.588C401.56 134.991 400.482 138.583 400.482 143.27H401.482C401.482 138.717 402.531 135.416 404.537 133.272L403.807 132.588ZM400.482 143.27C400.482 147.88 401.485 151.461 403.57 153.932L404.334 153.288C402.46 151.066 401.482 147.754 401.482 143.27H400.482ZM403.575 153.938C405.672 156.346 408.685 157.52 412.532 157.52V156.52C408.899 156.52 406.192 155.42 404.329 153.282L403.575 153.938ZM412.532 157.52C413.898 157.52 415.13 157.33 416.221 156.941L415.884 155.999C414.922 156.343 413.807 156.52 412.532 156.52V157.52ZM416.238 156.934C417.366 156.483 418.266 155.981 418.912 155.416L418.253 154.664C417.725 155.126 416.939 155.577 415.867 156.006L416.238 156.934ZM419.082 155.04V130.84H418.082V155.04H419.082ZM418.84 130.411C417.281 129.476 415.428 129.02 413.302 129.02V130.02C415.283 130.02 416.95 130.444 418.325 131.269L418.84 130.411ZM486.225 116.54L486.07 117.016L486.083 117.019L486.225 116.54ZM494.915 120.61L494.624 121.016L494.629 121.02L494.915 120.61ZM498.325 124.02L497.906 124.292L497.911 124.3L497.917 124.308L498.325 124.02ZM497.445 177.37L497.003 177.137L497.001 177.142L497.445 177.37ZM491.395 184.41L491.105 184.003L491.098 184.008L491.092 184.013L491.395 184.41ZM482.485 188.59L482.362 188.106L482.359 188.106L482.485 188.59ZM455.865 187.16L456.082 186.709L456.075 186.706L455.865 187.16ZM451.135 173.96L450.705 173.706L450.696 173.721L450.688 173.736L451.135 173.96ZM453.555 171.1L453.797 170.662L453.514 170.506L453.255 170.7L453.555 171.1ZM460.705 174.07L460.559 174.548L460.563 174.549L460.705 174.07ZM478.525 173.3L478.771 173.736L478.771 173.736L478.525 173.3ZM482.045 165.16H482.545V164.394L481.844 164.702L482.045 165.16ZM461.585 165.71L461.42 166.182L461.427 166.184L461.434 166.187L461.585 165.71ZM453.775 161.09L453.428 161.449L453.434 161.455L453.44 161.461L453.775 161.09ZM448.385 152.95L447.921 153.136L447.925 153.144L448.385 152.95ZM448.495 129.52L448.038 129.317L448.035 129.326L448.495 129.52ZM454.435 121.38L454.76 121.76L454.761 121.76L454.435 121.38ZM463.455 116.54L463.598 117.019L463.605 117.017L463.455 116.54ZM481.715 130.84H482.215V130.55L481.964 130.406L481.715 130.84ZM479.405 129.96L479.258 130.438L479.268 130.441L479.405 129.96ZM467.635 132.6L467.262 132.267L467.262 132.268L467.635 132.6ZM467.635 150.42L467.268 150.759L467.275 150.766L467.282 150.774L467.635 150.42ZM481.715 151.08L482.026 151.472L482.215 151.322V151.08H481.715ZM474.895 115.39C479.032 115.39 482.755 115.934 486.07 117.015L486.38 116.065C482.949 114.946 479.119 114.39 474.895 114.39V115.39ZM486.083 117.019C489.489 118.034 492.332 119.369 494.624 121.016L495.207 120.204C492.806 118.478 489.856 117.1 486.368 116.061L486.083 117.019ZM494.629 121.02C496.053 122.017 497.14 123.109 497.906 124.292L498.745 123.748C497.897 122.438 496.711 121.257 495.202 120.2L494.629 121.02ZM497.917 124.308C498.722 125.449 499.145 126.953 499.145 128.86H500.145C500.145 126.807 499.689 125.085 498.734 123.732L497.917 124.308ZM499.145 128.86V167.36H500.145V128.86H499.145ZM499.145 167.36C499.145 171.184 498.424 174.437 497.003 177.137L497.888 177.603C499.4 174.729 500.145 171.309 500.145 167.36H499.145ZM497.001 177.142C495.57 179.932 493.605 182.217 491.105 184.003L491.686 184.817C494.319 182.936 496.388 180.528 497.89 177.598L497.001 177.142ZM491.092 184.013C488.659 185.873 485.752 187.24 482.362 188.106L482.609 189.074C486.112 188.18 489.146 186.76 491.699 184.807L491.092 184.013ZM482.359 188.106C479.032 188.974 475.444 189.41 471.595 189.41V190.41C475.52 190.41 479.193 189.966 482.612 189.074L482.359 188.106ZM471.595 189.41C464.958 189.41 459.8 188.497 456.082 186.709L455.649 187.611C459.558 189.49 464.886 190.41 471.595 190.41V189.41ZM456.075 186.706C454.235 185.857 452.885 184.748 451.993 183.393C451.102 182.039 450.645 180.405 450.645 178.47H449.645C449.645 180.568 450.142 182.4 451.158 183.942C452.172 185.484 453.683 186.703 455.656 187.614L456.075 186.706ZM450.645 178.47C450.645 176.85 450.962 175.425 451.583 174.184L450.688 173.736C449.989 175.135 449.645 176.717 449.645 178.47H450.645ZM451.566 174.214C452.276 173.007 453.042 172.11 453.855 171.5L453.255 170.7C452.309 171.41 451.461 172.42 450.705 173.706L451.566 174.214ZM453.314 171.538C455.475 172.73 457.891 173.733 460.559 174.548L460.852 173.592C458.24 172.794 455.89 171.817 453.797 170.662L453.314 171.538ZM460.563 174.549C463.323 175.37 466.158 175.78 469.065 175.78V174.78C466.253 174.78 463.515 174.384 460.848 173.591L460.563 174.549ZM469.065 175.78C473.074 175.78 476.322 175.113 478.771 173.736L478.28 172.864C476.036 174.127 472.977 174.78 469.065 174.78V175.78ZM478.771 173.736C481.291 172.318 482.545 170.014 482.545 166.92H481.545C481.545 169.692 480.453 171.642 478.28 172.864L478.771 173.736ZM482.545 166.92V165.16H481.545V166.92H482.545ZM481.844 164.702C478.918 165.987 475.324 166.64 471.045 166.64V167.64C475.42 167.64 479.16 166.973 482.246 165.618L481.844 164.702ZM471.045 166.64C467.794 166.64 464.692 166.171 461.737 165.233L461.434 166.187C464.492 167.156 467.697 167.64 471.045 167.64V166.64ZM461.751 165.238C458.879 164.233 456.334 162.727 454.111 160.719L453.44 161.461C455.764 163.56 458.425 165.134 461.42 166.182L461.751 165.238ZM454.123 160.731C451.979 158.658 450.218 156.004 448.846 152.756L447.925 153.144C449.34 156.496 451.172 159.269 453.428 161.449L454.123 160.731ZM448.85 152.764C447.559 149.537 446.905 145.68 446.905 141.18H445.905C445.905 145.773 446.572 149.763 447.921 153.136L448.85 152.764ZM446.905 141.18C446.905 136.757 447.594 132.94 448.956 129.714L448.035 129.326C446.61 132.7 445.905 136.656 445.905 141.18H446.905ZM448.952 129.723C450.392 126.484 452.329 123.834 454.76 121.76L454.111 121C451.555 123.179 449.532 125.956 448.039 129.317L448.952 129.723ZM454.761 121.76C457.271 119.608 460.214 118.027 463.598 117.019L463.313 116.061C459.803 117.106 456.733 118.752 454.11 121L454.761 121.76ZM463.605 117.017C467.071 115.934 470.834 115.39 474.895 115.39V114.39C470.744 114.39 466.88 114.946 463.306 116.063L463.605 117.017ZM481.964 130.406C481.398 130.083 480.582 129.776 479.543 129.479L479.268 130.441C480.282 130.73 481.006 131.011 481.467 131.274L481.964 130.406ZM479.553 129.482C478.535 129.169 477.271 129.02 475.775 129.02V130.02C477.213 130.02 478.369 130.164 479.258 130.438L479.553 129.482ZM475.775 129.02C472.086 129.02 469.218 130.077 467.263 132.267L468.008 132.933C469.72 131.016 472.278 130.02 475.775 130.02V129.02ZM467.262 132.268C465.392 134.371 464.495 137.368 464.495 141.18H465.495C465.495 137.512 466.359 134.789 468.009 132.932L467.262 132.268ZM464.495 141.18C464.495 145.483 465.383 148.717 467.268 150.759L468.003 150.081C466.368 148.31 465.495 145.383 465.495 141.18H464.495ZM467.282 150.774C469.216 152.708 471.657 153.67 474.565 153.67V152.67C471.9 152.67 469.721 151.799 467.989 150.066L467.282 150.774ZM474.565 153.67C477.647 153.67 480.152 152.956 482.026 151.472L481.405 150.688C479.759 151.991 477.498 152.67 474.565 152.67V153.67ZM482.215 151.08V130.84H481.215V151.08H482.215ZM527.408 170L527.247 170.474L527.258 170.477L527.408 170ZM517.728 164.5L517.395 164.873L517.4 164.878L517.728 164.5ZM511.238 155.37L510.777 155.564L510.78 155.571L511.238 155.37ZM511.238 130.07L510.783 129.862L510.781 129.866L511.238 130.07ZM517.508 121.49L517.833 121.87L517.839 121.864L517.508 121.49ZM526.308 116.54L526.456 117.018L526.466 117.014L526.308 116.54ZM546.988 116.65L546.813 117.119L546.817 117.12L546.988 116.65ZM555.238 121.49L554.902 121.861L554.908 121.866L555.238 121.49ZM560.628 128.86L560.169 129.06L560.174 129.07L560.628 128.86ZM560.518 143.93L560.174 143.567L560.174 143.567L560.518 143.93ZM554.688 146.46L554.615 145.965L554.614 145.966L554.688 146.46ZM527.518 150.53L527.444 150.036L526.855 150.124L527.043 150.688L527.518 150.53ZM532.468 156.03L532.244 156.477L532.255 156.482L532.468 156.03ZM549.518 156.69L549.651 157.172L549.66 157.169L549.518 156.69ZM556.118 153.94L556.383 153.516L556.121 153.353L555.858 153.513L556.118 153.94ZM559.088 157.02L559.514 156.759L559.514 156.759L559.088 157.02ZM555.678 168.57L555.446 168.127L555.443 168.128L555.678 168.57ZM547.758 171.1L547.683 170.606L547.683 170.606L547.758 171.1ZM531.808 129.41L531.604 128.953L531.595 128.958L531.808 129.41ZM528.728 131.72L529.096 132.058L529.103 132.051L529.109 132.043L528.728 131.72ZM526.858 134.8L526.389 134.624L526.386 134.633L526.383 134.642L526.858 134.8ZM526.198 138.21L525.699 138.179L525.659 138.805L526.278 138.703L526.198 138.21ZM545.008 135.13L545.088 135.623L545.575 135.544L545.502 135.056L545.008 135.13ZM542.588 130.73L542.95 130.386L542.95 130.386L542.588 130.73ZM539.508 171.26C535.226 171.26 531.244 170.68 527.557 169.523L527.258 170.477C531.051 171.667 535.135 172.26 539.508 172.26V171.26ZM527.569 169.527C523.96 168.3 520.791 166.498 518.055 164.122L517.4 164.878C520.238 167.342 523.522 169.207 527.247 170.473L527.569 169.527ZM518.06 164.127C515.406 161.759 513.283 158.776 511.695 155.169L510.78 155.571C512.419 159.297 514.623 162.401 517.395 164.873L518.06 164.127ZM511.699 155.176C510.19 151.584 509.428 147.362 509.428 142.5H508.428C508.428 147.465 509.206 151.823 510.777 155.564L511.699 155.176ZM509.428 142.5C509.428 137.711 510.19 133.641 511.694 130.274L510.781 129.866C509.206 133.392 508.428 137.609 508.428 142.5H509.428ZM511.692 130.278C513.28 126.815 515.329 124.016 517.833 121.87L517.182 121.11C514.553 123.364 512.422 126.285 510.783 129.862L511.692 130.278ZM517.839 121.864C520.352 119.638 523.223 118.023 526.456 117.017L526.159 116.063C522.792 117.11 519.796 118.795 517.176 121.116L517.839 121.864ZM526.466 117.014C529.715 115.931 533.035 115.39 536.428 115.39V114.39C532.927 114.39 529.5 114.949 526.149 116.066L526.466 117.014ZM536.428 115.39C540.264 115.39 543.724 115.969 546.813 117.119L547.162 116.181C543.945 114.984 540.365 114.39 536.428 114.39V115.39ZM546.817 117.12C549.99 118.274 552.682 119.856 554.902 121.861L555.573 121.119C553.246 119.017 550.438 117.373 547.158 116.18L546.817 117.12ZM554.908 121.866C557.199 123.871 558.952 126.267 560.169 129.06L561.086 128.66C559.81 125.733 557.969 123.216 555.567 121.114L554.908 121.866ZM560.174 129.07C561.461 131.859 562.108 134.904 562.108 138.21H563.108C563.108 134.77 562.434 131.581 561.082 128.65L560.174 129.07ZM562.108 138.21C562.108 140.609 561.44 142.368 560.174 143.567L560.861 144.293C562.382 142.852 563.108 140.797 563.108 138.21H562.108ZM560.174 143.567C558.875 144.797 557.038 145.609 554.615 145.965L554.76 146.955C557.324 146.578 559.373 145.703 560.861 144.293L560.174 143.567ZM554.614 145.966L527.444 150.036L527.592 151.024L554.762 146.954L554.614 145.966ZM527.043 150.688C527.896 153.246 529.644 155.177 532.244 156.477L532.691 155.583C530.304 154.389 528.753 152.654 527.992 150.372L527.043 150.688ZM532.255 156.482C534.825 157.692 537.76 158.29 541.048 158.29V157.29C537.882 157.29 535.097 156.715 532.68 155.578L532.255 156.482ZM541.048 158.29C544.095 158.29 546.964 157.918 549.651 157.172L549.384 156.208C546.791 156.928 544.013 157.29 541.048 157.29V158.29ZM549.66 157.169C552.398 156.355 554.642 155.423 556.378 154.367L555.858 153.513C554.22 154.51 552.063 155.412 549.375 156.211L549.66 157.169ZM555.853 154.364C556.953 155.052 557.89 156.019 558.661 157.281L559.514 156.759C558.672 155.381 557.629 154.295 556.383 153.516L555.853 154.364ZM558.661 157.281C559.422 158.527 559.798 159.83 559.798 161.2H560.798C560.798 159.636 560.366 158.153 559.514 156.759L558.661 157.281ZM559.798 161.2C559.798 162.769 559.432 164.114 558.719 165.252C558.005 166.392 556.923 167.353 555.446 168.127L555.91 169.013C557.512 168.173 558.741 167.1 559.566 165.783C560.393 164.465 560.798 162.931 560.798 161.2H559.798ZM555.443 168.128C553.152 169.346 550.567 170.173 547.683 170.606L547.832 171.594C550.815 171.147 553.51 170.288 555.912 169.012L555.443 168.128ZM547.683 170.606C544.771 171.042 542.046 171.26 539.508 171.26V172.26C542.103 172.26 544.878 172.038 547.832 171.594L547.683 170.606ZM536.428 128.03C534.613 128.03 533.001 128.333 531.605 128.953L532.011 129.867C533.254 129.314 534.723 129.03 536.428 129.03V128.03ZM531.595 128.958C530.29 129.572 529.203 130.384 528.346 131.397L529.109 132.043C529.865 131.15 530.832 130.422 532.02 129.862L531.595 128.958ZM528.359 131.382C527.507 132.312 526.851 133.394 526.389 134.624L527.326 134.976C527.744 133.859 528.335 132.888 529.096 132.058L528.359 131.382ZM526.383 134.642C526.003 135.784 525.775 136.963 525.699 138.179L526.697 138.241C526.767 137.11 526.979 136.016 527.332 134.958L526.383 134.642ZM526.278 138.703L545.088 135.623L544.927 134.637L526.117 137.717L526.278 138.703ZM545.502 135.056C545.262 133.457 544.389 131.9 542.95 130.386L542.225 131.074C543.573 132.493 544.313 133.87 544.513 135.204L545.502 135.056ZM542.95 130.386C541.433 128.789 539.229 128.03 536.428 128.03V129.03C539.052 129.03 540.955 129.738 542.225 131.074L542.95 130.386Z" fill="#FFFAEF"/>
</g>
<g filter="url(#filter1_d_1_13)">
<path d="M373.24 252.61C372.287 253.417 371.04 254.077 369.5 254.59C368.033 255.03 366.31 255.25 364.33 255.25C361.69 255.25 359.49 254.92 357.73 254.26C356.043 253.6 354.943 252.463 354.43 250.85C352.377 244.397 350.69 239.19 349.37 235.23C348.05 231.197 347.023 227.677 346.29 224.67H345.74C345.52 228.997 345.337 232.957 345.19 236.55C345.117 240.07 345.043 243.517 344.97 246.89C344.97 250.263 344.897 253.673 344.75 257.12C344.677 260.567 344.53 264.38 344.31 268.56C343.357 268.927 342.11 269.22 340.57 269.44C339.03 269.733 337.49 269.88 335.95 269.88C332.723 269.88 330.193 269.367 328.36 268.34C326.6 267.313 325.72 265.443 325.72 262.73L328.91 206.63C329.497 205.677 330.78 204.65 332.76 203.55C334.74 202.45 337.527 201.9 341.12 201.9C345.007 201.9 348.05 202.523 350.25 203.77C352.45 204.943 354.063 206.887 355.09 209.6C355.75 211.36 356.447 213.377 357.18 215.65C357.987 217.923 358.757 220.27 359.49 222.69C360.297 225.11 361.067 227.53 361.8 229.95C362.533 232.297 363.193 234.423 363.78 236.33H364.33C366.09 230.17 367.85 224.23 369.61 218.51C371.37 212.717 372.983 207.877 374.45 203.99C375.55 203.403 376.943 202.927 378.63 202.56C380.39 202.12 382.333 201.9 384.46 201.9C388.053 201.9 390.987 202.45 393.26 203.55C395.533 204.577 396.853 206.08 397.22 208.06C397.513 209.527 397.807 211.8 398.1 214.88C398.467 217.887 398.833 221.297 399.2 225.11C399.567 228.923 399.933 232.957 400.3 237.21C400.667 241.463 400.997 245.57 401.29 249.53C401.657 253.417 401.95 257.01 402.17 260.31C402.39 263.537 402.537 266.03 402.61 267.79C401.363 268.523 400.043 269.037 398.65 269.33C397.33 269.697 395.607 269.88 393.48 269.88C390.693 269.88 388.347 269.403 386.44 268.45C384.533 267.497 383.507 265.627 383.36 262.84C382.92 254.847 382.627 247.66 382.48 241.28C382.407 234.9 382.26 229.547 382.04 225.22H381.49C380.757 228.08 379.693 231.673 378.3 236C376.907 240.327 375.22 245.863 373.24 252.61ZM436.256 257.12C437.503 257.12 438.86 257.01 440.326 256.79C441.866 256.497 443.003 256.13 443.736 255.69V246.89L435.816 247.55C433.763 247.697 432.076 248.137 430.756 248.87C429.436 249.603 428.776 250.703 428.776 252.17C428.776 253.637 429.326 254.847 430.426 255.8C431.6 256.68 433.543 257.12 436.256 257.12ZM435.376 213.89C439.336 213.89 442.93 214.293 446.156 215.1C449.456 215.907 452.243 217.153 454.516 218.84C456.863 220.453 458.66 222.543 459.906 225.11C461.153 227.603 461.776 230.573 461.776 234.02V258.66C461.776 260.567 461.226 262.143 460.126 263.39C459.1 264.563 457.853 265.59 456.386 266.47C451.62 269.33 444.91 270.76 436.256 270.76C432.37 270.76 428.85 270.393 425.696 269.66C422.616 268.927 419.94 267.827 417.666 266.36C415.466 264.893 413.743 263.023 412.496 260.75C411.323 258.477 410.736 255.837 410.736 252.83C410.736 247.77 412.24 243.883 415.246 241.17C418.253 238.457 422.91 236.77 429.216 236.11L443.626 234.57V233.8C443.626 231.673 442.673 230.17 440.766 229.29C438.933 228.337 436.256 227.86 432.736 227.86C429.95 227.86 427.236 228.153 424.596 228.74C421.956 229.327 419.573 230.06 417.446 230.94C416.493 230.28 415.686 229.29 415.026 227.97C414.366 226.577 414.036 225.147 414.036 223.68C414.036 221.773 414.476 220.27 415.356 219.17C416.31 217.997 417.74 217.007 419.646 216.2C421.773 215.393 424.266 214.807 427.126 214.44C430.06 214.073 432.81 213.89 435.376 213.89ZM518.31 253.05C518.31 258.623 516.22 262.987 512.04 266.14C507.86 269.293 501.7 270.87 493.56 270.87C490.48 270.87 487.62 270.65 484.98 270.21C482.34 269.77 480.067 269.11 478.16 268.23C476.327 267.277 474.86 266.103 473.76 264.71C472.734 263.317 472.22 261.667 472.22 259.76C472.22 258 472.587 256.533 473.32 255.36C474.054 254.113 474.934 253.087 475.96 252.28C478.087 253.453 480.507 254.517 483.22 255.47C486.007 256.35 489.197 256.79 492.79 256.79C495.064 256.79 496.787 256.46 497.96 255.8C499.207 255.14 499.83 254.26 499.83 253.16C499.83 252.133 499.39 251.327 498.51 250.74C497.63 250.153 496.164 249.677 494.11 249.31L490.81 248.65C484.43 247.403 479.664 245.46 476.51 242.82C473.43 240.107 471.89 236.257 471.89 231.27C471.89 228.557 472.477 226.1 473.65 223.9C474.824 221.7 476.474 219.867 478.6 218.4C480.727 216.933 483.257 215.797 486.19 214.99C489.197 214.183 492.497 213.78 496.09 213.78C498.804 213.78 501.334 214 503.68 214.44C506.1 214.807 508.19 215.393 509.95 216.2C511.71 217.007 513.104 218.07 514.13 219.39C515.157 220.637 515.67 222.14 515.67 223.9C515.67 225.587 515.34 227.053 514.68 228.3C514.094 229.473 513.324 230.463 512.37 231.27C511.784 230.903 510.904 230.537 509.73 230.17C508.557 229.73 507.274 229.363 505.88 229.07C504.487 228.703 503.057 228.41 501.59 228.19C500.197 227.97 498.914 227.86 497.74 227.86C495.32 227.86 493.45 228.153 492.13 228.74C490.81 229.253 490.15 230.097 490.15 231.27C490.15 232.077 490.517 232.737 491.25 233.25C491.984 233.763 493.377 234.24 495.43 234.68L498.84 235.45C505.88 237.063 510.867 239.3 513.8 242.16C516.807 244.947 518.31 248.577 518.31 253.05ZM546.051 250.63C546.051 252.537 546.638 253.893 547.811 254.7C549.058 255.507 550.781 255.91 552.981 255.91C554.081 255.91 555.218 255.837 556.391 255.69C557.564 255.47 558.591 255.213 559.471 254.92C560.131 255.727 560.681 256.643 561.121 257.67C561.634 258.623 561.891 259.797 561.891 261.19C561.891 263.977 560.828 266.25 558.701 268.01C556.648 269.77 552.981 270.65 547.701 270.65C541.248 270.65 536.261 269.183 532.741 266.25C529.294 263.317 527.571 258.55 527.571 251.95V204.87C528.378 204.65 529.514 204.43 530.981 204.21C532.521 203.917 534.134 203.77 535.821 203.77C539.048 203.77 541.541 204.357 543.301 205.53C545.134 206.63 546.051 209.013 546.051 212.68V219.72H560.461C560.901 220.527 561.304 221.553 561.671 222.8C562.111 223.973 562.331 225.293 562.331 226.76C562.331 229.327 561.744 231.197 560.571 232.37C559.471 233.47 557.968 234.02 556.061 234.02H546.051V250.63ZM599.019 270.76C594.693 270.76 590.659 270.173 586.919 269C583.253 267.753 580.026 265.92 577.239 263.5C574.526 261.08 572.363 258.037 570.749 254.37C569.209 250.703 568.439 246.413 568.439 241.5C568.439 236.66 569.209 232.517 570.749 229.07C572.363 225.55 574.453 222.69 577.019 220.49C579.586 218.217 582.519 216.567 585.819 215.54C589.119 214.44 592.493 213.89 595.939 213.89C599.826 213.89 603.346 214.477 606.499 215.65C609.726 216.823 612.476 218.437 614.749 220.49C617.096 222.543 618.893 225 620.139 227.86C621.459 230.72 622.119 233.837 622.119 237.21C622.119 239.703 621.423 241.61 620.029 242.93C618.636 244.25 616.693 245.093 614.199 245.46L587.029 249.53C587.836 251.95 589.486 253.783 591.979 255.03C594.473 256.203 597.333 256.79 600.559 256.79C603.566 256.79 606.389 256.423 609.029 255.69C611.743 254.883 613.943 253.967 615.629 252.94C616.803 253.673 617.793 254.7 618.599 256.02C619.406 257.34 619.809 258.733 619.809 260.2C619.809 263.5 618.269 265.957 615.189 267.57C612.843 268.817 610.203 269.66 607.269 270.1C604.336 270.54 601.586 270.76 599.019 270.76ZM595.939 227.53C594.179 227.53 592.639 227.823 591.319 228.41C590.073 228.997 589.046 229.767 588.239 230.72C587.433 231.6 586.809 232.627 586.369 233.8C586.003 234.9 585.783 236.037 585.709 237.21L604.519 234.13C604.299 232.663 603.493 231.197 602.099 229.73C600.706 228.263 598.653 227.53 595.939 227.53ZM649.82 268.89C649.087 269.11 647.914 269.33 646.3 269.55C644.76 269.77 643.147 269.88 641.46 269.88C639.847 269.88 638.38 269.77 637.06 269.55C635.814 269.33 634.75 268.89 633.87 268.23C632.99 267.57 632.294 266.69 631.78 265.59C631.34 264.417 631.12 262.913 631.12 261.08V228.08C631.12 226.393 631.414 224.963 632 223.79C632.66 222.543 633.577 221.443 634.75 220.49C635.924 219.537 637.354 218.693 639.04 217.96C640.8 217.153 642.67 216.457 644.65 215.87C646.63 215.283 648.684 214.843 650.81 214.55C652.937 214.183 655.064 214 657.19 214C660.71 214 663.497 214.697 665.55 216.09C667.604 217.41 668.63 219.61 668.63 222.69C668.63 223.717 668.484 224.743 668.19 225.77C667.897 226.723 667.53 227.603 667.09 228.41C665.55 228.41 663.974 228.483 662.36 228.63C660.747 228.777 659.17 228.997 657.63 229.29C656.09 229.583 654.624 229.913 653.23 230.28C651.91 230.573 650.774 230.94 649.82 231.38V268.89Z" fill="#0E0404" fill-opacity="0.88" shape-rendering="crispEdges"/>
<path d="M373.24 252.61L373.563 252.992L373.678 252.895L373.72 252.751L373.24 252.61ZM369.5 254.59L369.644 255.069L369.651 255.067L369.658 255.064L369.5 254.59ZM357.73 254.26L357.548 254.726L357.554 254.728L357.73 254.26ZM354.43 250.85L353.954 251.002L353.954 251.002L354.43 250.85ZM349.37 235.23L348.895 235.386L348.896 235.388L349.37 235.23ZM346.29 224.67L346.776 224.552L346.683 224.17H346.29V224.67ZM345.74 224.67V224.17H345.265L345.241 224.645L345.74 224.67ZM345.19 236.55L344.69 236.53L344.69 236.54L345.19 236.55ZM344.97 246.89L344.47 246.879V246.89H344.97ZM344.75 257.12L344.25 257.099L344.25 257.109L344.75 257.12ZM344.31 268.56L344.489 269.027L344.792 268.91L344.809 268.586L344.31 268.56ZM340.57 269.44L340.499 268.945L340.488 268.947L340.476 268.949L340.57 269.44ZM328.36 268.34L328.108 268.772L328.116 268.776L328.36 268.34ZM325.72 262.73L325.221 262.702L325.22 262.716V262.73H325.72ZM328.91 206.63L328.484 206.368L328.418 206.476L328.411 206.602L328.91 206.63ZM350.25 203.77L350.003 204.205L350.015 204.211L350.25 203.77ZM355.09 209.6L355.558 209.424L355.558 209.423L355.09 209.6ZM357.18 215.65L356.704 215.804L356.706 215.81L356.709 215.817L357.18 215.65ZM359.49 222.69L359.011 222.835L359.016 222.848L359.49 222.69ZM361.8 229.95L361.321 230.095L361.323 230.099L361.8 229.95ZM363.78 236.33L363.302 236.477L363.411 236.83H363.78V236.33ZM364.33 236.33V236.83H364.707L364.811 236.467L364.33 236.33ZM369.61 218.51L370.088 218.657L370.088 218.655L369.61 218.51ZM374.45 203.99L374.215 203.549L374.049 203.637L373.982 203.813L374.45 203.99ZM378.63 202.56L378.736 203.049L378.744 203.047L378.751 203.045L378.63 202.56ZM393.26 203.55L393.042 204L393.054 204.006L393.26 203.55ZM397.22 208.06L396.728 208.151L396.73 208.158L397.22 208.06ZM398.1 214.88L397.602 214.927L397.604 214.941L398.1 214.88ZM401.29 249.53L400.791 249.567L400.792 249.577L401.29 249.53ZM402.17 260.31L401.671 260.343L401.671 260.344L402.17 260.31ZM402.61 267.79L402.864 268.221L403.122 268.069L403.11 267.769L402.61 267.79ZM398.65 269.33L398.547 268.841L398.531 268.844L398.516 268.848L398.65 269.33ZM383.36 262.84L383.859 262.814L383.859 262.813L383.36 262.84ZM382.48 241.28L381.98 241.286L381.98 241.291L382.48 241.28ZM382.04 225.22L382.539 225.195L382.515 224.72H382.04V225.22ZM381.49 225.22V224.72H381.102L381.006 225.096L381.49 225.22ZM378.3 236L378.776 236.153L378.776 236.153L378.3 236ZM372.917 252.228C372.024 252.984 370.839 253.617 369.342 254.116L369.658 255.064C371.241 254.537 372.549 253.85 373.563 252.992L372.917 252.228ZM369.356 254.111C367.948 254.534 366.275 254.75 364.33 254.75V255.75C366.345 255.75 368.119 255.526 369.644 255.069L369.356 254.111ZM364.33 254.75C361.728 254.75 359.592 254.424 357.906 253.792L357.554 254.728C359.388 255.416 361.652 255.75 364.33 255.75V254.75ZM357.912 253.794C356.355 253.185 355.371 252.157 354.906 250.698L353.954 251.002C354.516 252.77 355.732 254.015 357.548 254.726L357.912 253.794ZM354.906 250.698C352.853 244.244 351.165 239.035 349.844 235.072L348.896 235.388C350.215 239.345 351.901 244.549 353.954 251.002L354.906 250.698ZM349.845 235.074C348.528 231.049 347.505 227.542 346.776 224.552L345.804 224.788C346.541 227.811 347.572 231.344 348.895 235.386L349.845 235.074ZM346.29 224.17H345.74V225.17H346.29V224.17ZM345.241 224.645C345.021 228.973 344.837 232.934 344.69 236.53L345.69 236.57C345.836 232.979 346.019 229.021 346.239 224.695L345.241 224.645ZM344.69 236.54C344.617 240.059 344.543 243.506 344.47 246.879L345.47 246.901C345.543 243.527 345.617 240.081 345.69 236.56L344.69 236.54ZM344.47 246.89C344.47 250.256 344.397 253.659 344.25 257.099L345.25 257.141C345.397 253.688 345.47 250.271 345.47 246.89H344.47ZM344.25 257.109C344.177 260.55 344.03 264.358 343.811 268.534L344.809 268.586C345.03 264.402 345.176 260.583 345.25 257.131L344.25 257.109ZM344.131 268.093C343.225 268.441 342.019 268.728 340.499 268.945L340.641 269.935C342.201 269.712 343.488 269.412 344.489 269.027L344.131 268.093ZM340.476 268.949C338.967 269.236 337.458 269.38 335.95 269.38V270.38C337.522 270.38 339.093 270.23 340.664 269.931L340.476 268.949ZM335.95 269.38C332.767 269.38 330.333 268.872 328.604 267.904L328.116 268.776C330.053 269.861 332.68 270.38 335.95 270.38V269.38ZM328.612 267.908C327.056 267 326.22 265.333 326.22 262.73H325.22C325.22 265.554 326.144 267.626 328.108 268.772L328.612 267.908ZM326.219 262.758L329.409 206.658L328.411 206.602L325.221 262.702L326.219 262.758ZM329.336 206.892C329.851 206.055 331.036 205.08 333.003 203.987L332.517 203.113C330.524 204.22 329.142 205.298 328.484 206.368L329.336 206.892ZM333.003 203.987C334.877 202.946 337.567 202.4 341.12 202.4V201.4C337.487 201.4 334.603 201.954 332.517 203.113L333.003 203.987ZM341.12 202.4C344.963 202.4 347.909 203.018 350.003 204.205L350.497 203.335C348.191 202.029 345.051 201.4 341.12 201.4V202.4ZM350.015 204.211C352.091 205.318 353.631 207.157 354.622 209.777L355.558 209.423C354.496 206.616 352.809 204.568 350.485 203.329L350.015 204.211ZM354.622 209.776C355.278 211.527 355.973 213.536 356.704 215.804L357.656 215.496C356.921 213.218 356.222 211.193 355.558 209.424L354.622 209.776ZM356.709 215.817C357.513 218.083 358.28 220.422 359.011 222.835L359.969 222.545C359.233 220.118 358.461 217.764 357.651 215.483L356.709 215.817ZM359.016 222.848C359.821 225.264 360.589 227.679 361.321 230.095L362.279 229.805C361.544 227.381 360.772 224.956 359.964 222.532L359.016 222.848ZM361.323 230.099C362.056 232.445 362.716 234.571 363.302 236.477L364.258 236.183C363.671 234.275 363.011 232.148 362.277 229.801L361.323 230.099ZM363.78 236.83H364.33V235.83H363.78V236.83ZM364.811 236.467C366.57 230.31 368.329 224.374 370.088 218.657L369.132 218.363C367.371 224.086 365.61 230.03 363.849 236.193L364.811 236.467ZM370.088 218.655C371.847 212.868 373.456 208.039 374.918 204.167L373.982 203.813C372.51 207.714 370.893 212.565 369.132 218.365L370.088 218.655ZM374.685 204.431C375.732 203.873 377.079 203.409 378.736 203.049L378.524 202.071C376.808 202.444 375.368 202.934 374.215 203.549L374.685 204.431ZM378.751 203.045C380.466 202.617 382.367 202.4 384.46 202.4V201.4C382.299 201.4 380.315 201.623 378.509 202.075L378.751 203.045ZM384.46 202.4C388.008 202.4 390.859 202.944 393.042 204L393.478 203.1C391.114 201.956 388.099 201.4 384.46 201.4V202.4ZM393.054 204.006C395.218 204.983 396.399 206.371 396.728 208.151L397.712 207.969C397.308 205.789 395.848 204.17 393.466 203.094L393.054 204.006ZM396.73 208.158C397.018 209.598 397.309 211.85 397.602 214.927L398.598 214.833C398.304 211.75 398.009 209.455 397.71 207.962L396.73 208.158ZM397.604 214.941C397.97 217.942 398.336 221.348 398.702 225.158L399.698 225.062C399.331 221.246 398.964 217.831 398.596 214.819L397.604 214.941ZM398.702 225.158C399.069 228.969 399.435 233.001 399.802 237.253L400.798 237.167C400.431 232.912 400.065 228.877 399.698 225.062L398.702 225.158ZM399.802 237.253C400.168 241.504 400.498 245.609 400.791 249.567L401.789 249.493C401.495 245.531 401.165 241.422 400.798 237.167L399.802 237.253ZM400.792 249.577C401.159 253.46 401.451 257.049 401.671 260.343L402.669 260.277C402.449 256.971 402.155 253.373 401.788 249.483L400.792 249.577ZM401.671 260.344C401.891 263.569 402.037 266.057 402.11 267.811L403.11 267.769C403.036 266.003 402.889 263.504 402.669 260.276L401.671 260.344ZM402.356 267.359C401.156 268.065 399.886 268.559 398.547 268.841L398.753 269.819C400.2 269.515 401.571 268.981 402.864 268.221L402.356 267.359ZM398.516 268.848C397.257 269.198 395.583 269.38 393.48 269.38V270.38C395.63 270.38 397.403 270.195 398.784 269.812L398.516 268.848ZM393.48 269.38C390.748 269.38 388.483 268.912 386.664 268.003L386.216 268.897C388.21 269.894 390.639 270.38 393.48 270.38V269.38ZM386.664 268.003C384.968 267.155 384 265.485 383.859 262.814L382.861 262.866C383.013 265.769 384.099 267.838 386.216 268.897L386.664 268.003ZM383.859 262.813C383.419 254.823 383.126 247.642 382.98 241.269L381.98 241.291C382.127 247.678 382.421 254.87 382.861 262.867L383.859 262.813ZM382.98 241.274C382.907 234.89 382.76 229.53 382.539 225.195L381.541 225.245C381.76 229.563 381.907 234.91 381.98 241.286L382.98 241.274ZM382.04 224.72H381.49V225.72H382.04V224.72ZM381.006 225.096C380.276 227.942 379.216 231.525 377.824 235.847L378.776 236.153C380.171 231.822 381.238 228.218 381.974 225.344L381.006 225.096ZM377.824 235.847C376.429 240.179 374.741 245.72 372.76 252.469L373.72 252.751C375.699 246.006 377.384 240.474 378.776 236.153L377.824 235.847ZM440.326 256.79L440.4 257.284L440.41 257.283L440.42 257.281L440.326 256.79ZM443.736 255.69L443.993 256.119L444.236 255.973V255.69H443.736ZM443.736 246.89H444.236V246.347L443.695 246.392L443.736 246.89ZM435.816 247.55L435.852 248.049L435.858 248.048L435.816 247.55ZM430.756 248.87L430.513 248.433L430.513 248.433L430.756 248.87ZM430.426 255.8L430.099 256.178L430.112 256.189L430.126 256.2L430.426 255.8ZM446.156 215.1L446.035 215.585L446.038 215.586L446.156 215.1ZM454.516 218.84L454.218 219.242L454.226 219.247L454.233 219.252L454.516 218.84ZM459.906 225.11L459.456 225.328L459.459 225.334L459.906 225.11ZM460.126 263.39L459.751 263.059L459.75 263.061L460.126 263.39ZM456.386 266.47L456.129 266.041L456.129 266.041L456.386 266.47ZM425.696 269.66L425.58 270.146L425.583 270.147L425.696 269.66ZM417.666 266.36L417.389 266.776L417.395 266.78L417.666 266.36ZM412.496 260.75L412.052 260.979L412.058 260.99L412.496 260.75ZM415.246 241.17L414.911 240.799L414.911 240.799L415.246 241.17ZM429.216 236.11L429.268 236.607L429.269 236.607L429.216 236.11ZM443.626 234.57L443.679 235.067L444.126 235.019V234.57H443.626ZM440.766 229.29L440.536 229.734L440.546 229.739L440.557 229.744L440.766 229.29ZM424.596 228.74L424.488 228.252L424.488 228.252L424.596 228.74ZM417.446 230.94L417.162 231.351L417.386 231.506L417.637 231.402L417.446 230.94ZM415.026 227.97L414.574 228.184L414.579 228.194L415.026 227.97ZM415.356 219.17L414.968 218.855L414.966 218.858L415.356 219.17ZM419.646 216.2L419.469 215.732L419.46 215.736L419.451 215.74L419.646 216.2ZM427.126 214.44L427.064 213.944L427.063 213.944L427.126 214.44ZM436.256 257.62C437.532 257.62 438.914 257.507 440.4 257.284L440.252 256.296C438.806 256.513 437.474 256.62 436.256 256.62V257.62ZM440.42 257.281C441.978 256.984 443.184 256.605 443.993 256.119L443.479 255.261C442.822 255.655 441.755 256.009 440.233 256.299L440.42 257.281ZM444.236 255.69V246.89H443.236V255.69H444.236ZM443.695 246.392L435.775 247.052L435.858 248.048L443.778 247.388L443.695 246.392ZM435.781 247.051C433.68 247.201 431.916 247.654 430.513 248.433L430.999 249.307C432.237 248.62 433.846 248.192 435.852 248.049L435.781 247.051ZM430.513 248.433C429.79 248.835 429.225 249.35 428.843 249.988C428.46 250.626 428.276 251.359 428.276 252.17H429.276C429.276 251.514 429.423 250.964 429.7 250.502C429.977 250.04 430.402 249.639 430.999 249.307L430.513 248.433ZM428.276 252.17C428.276 253.78 428.888 255.129 430.099 256.178L430.754 255.422C429.764 254.565 429.276 253.493 429.276 252.17H428.276ZM430.126 256.2C431.433 257.18 433.515 257.62 436.256 257.62V256.62C433.571 256.62 431.766 256.18 430.726 255.4L430.126 256.2ZM435.376 214.39C439.303 214.39 442.855 214.79 446.035 215.585L446.278 214.615C443.005 213.797 439.37 213.39 435.376 213.39V214.39ZM446.038 215.586C449.285 216.38 452.008 217.602 454.218 219.242L454.814 218.438C452.478 216.705 449.627 215.434 446.275 214.614L446.038 215.586ZM454.233 219.252C456.508 220.816 458.248 222.839 459.456 225.328L460.356 224.892C459.072 222.247 457.218 220.09 454.8 218.428L454.233 219.252ZM459.459 225.334C460.664 227.743 461.276 230.633 461.276 234.02H462.276C462.276 230.514 461.642 227.464 460.353 224.886L459.459 225.334ZM461.276 234.02V258.66H462.276V234.02H461.276ZM461.276 258.66C461.276 260.464 460.759 261.917 459.751 263.059L460.501 263.721C461.694 262.369 462.276 260.669 462.276 258.66H461.276ZM459.75 263.061C458.761 264.191 457.555 265.185 456.129 266.041L456.643 266.899C458.15 265.995 459.438 264.935 460.503 263.719L459.75 263.061ZM456.129 266.041C451.472 268.836 444.865 270.26 436.256 270.26V271.26C444.954 271.26 451.767 269.824 456.643 266.899L456.129 266.041ZM436.256 270.26C432.4 270.26 428.919 269.896 425.81 269.173L425.583 270.147C428.78 270.89 432.339 271.26 436.256 271.26V270.26ZM425.812 269.174C422.778 268.451 420.156 267.371 417.937 265.94L417.395 266.78C419.723 268.282 422.454 269.402 425.58 270.146L425.812 269.174ZM417.944 265.944C415.809 264.521 414.142 262.711 412.935 260.51L412.058 260.99C413.344 263.336 415.123 265.266 417.389 266.776L417.944 265.944ZM412.941 260.521C411.81 258.33 411.236 255.771 411.236 252.83H410.236C410.236 255.902 410.836 258.624 412.052 260.979L412.941 260.521ZM411.236 252.83C411.236 247.874 412.705 244.137 415.581 241.541L414.911 240.799C411.774 243.63 410.236 247.666 410.236 252.83H411.236ZM415.581 241.541C418.476 238.929 423.011 237.262 429.268 236.607L429.164 235.613C422.808 236.278 418.03 237.985 414.911 240.799L415.581 241.541ZM429.269 236.607L443.679 235.067L443.573 234.073L429.163 235.613L429.269 236.607ZM444.126 234.57V233.8H443.126V234.57H444.126ZM444.126 233.8C444.126 232.661 443.87 231.656 443.334 230.81C442.797 229.963 442.001 229.309 440.976 228.836L440.557 229.744C441.439 230.151 442.073 230.689 442.489 231.345C442.906 232.002 443.126 232.813 443.126 233.8H444.126ZM440.997 228.846C439.059 227.839 436.287 227.36 432.736 227.36V228.36C436.225 228.36 438.807 228.835 440.536 229.734L440.997 228.846ZM432.736 227.36C429.914 227.36 427.164 227.657 424.488 228.252L424.705 229.228C427.308 228.65 429.985 228.36 432.736 228.36V227.36ZM424.488 228.252C421.824 228.844 419.413 229.585 417.255 230.478L417.637 231.402C419.733 230.535 422.088 229.81 424.705 229.228L424.488 228.252ZM417.731 230.529C416.863 229.928 416.106 229.011 415.473 227.746L414.579 228.194C415.267 229.569 416.123 230.632 417.162 231.351L417.731 230.529ZM415.478 227.756C414.848 226.426 414.536 225.069 414.536 223.68H413.536C413.536 225.224 413.884 226.727 414.574 228.184L415.478 227.756ZM414.536 223.68C414.536 221.847 414.959 220.467 415.747 219.482L414.966 218.858C413.993 220.073 413.536 221.7 413.536 223.68H414.536ZM415.744 219.485C416.631 218.395 417.983 217.446 419.841 216.66L419.451 215.74C417.496 216.567 415.989 217.599 414.968 218.855L415.744 219.485ZM419.824 216.667C421.905 215.878 424.359 215.299 427.19 214.936L427.063 213.944C424.174 214.314 421.64 214.909 419.469 215.732L419.824 216.667ZM427.188 214.936C430.104 214.572 432.833 214.39 435.376 214.39V213.39C432.786 213.39 430.015 213.575 427.064 213.944L427.188 214.936ZM512.04 266.14L512.341 266.539L512.341 266.539L512.04 266.14ZM484.98 270.21L485.062 269.717L485.062 269.717L484.98 270.21ZM478.16 268.23L477.93 268.674L477.94 268.679L477.951 268.684L478.16 268.23ZM473.76 264.71L473.358 265.007L473.363 265.013L473.368 265.02L473.76 264.71ZM473.32 255.36L473.744 255.625L473.751 255.614L473.32 255.36ZM475.96 252.28L476.202 251.842L475.912 251.682L475.651 251.887L475.96 252.28ZM483.22 255.47L483.054 255.942L483.062 255.944L483.07 255.947L483.22 255.47ZM497.96 255.8L497.726 255.358L497.715 255.364L497.96 255.8ZM494.11 249.31L494.012 249.8L494.022 249.802L494.11 249.31ZM490.81 248.65L490.908 248.16L490.906 248.159L490.81 248.65ZM476.51 242.82L476.18 243.195L476.189 243.203L476.51 242.82ZM473.65 223.9L473.209 223.665L473.209 223.665L473.65 223.9ZM478.6 218.4L478.884 218.812L478.884 218.812L478.6 218.4ZM486.19 214.99L486.061 214.507L486.058 214.508L486.19 214.99ZM503.68 214.44L503.588 214.931L503.597 214.933L503.605 214.934L503.68 214.44ZM509.95 216.2L509.742 216.655L509.742 216.655L509.95 216.2ZM514.13 219.39L513.735 219.697L513.744 219.708L514.13 219.39ZM514.68 228.3L514.238 228.066L514.233 228.076L514.68 228.3ZM512.37 231.27L512.105 231.694L512.415 231.887L512.693 231.652L512.37 231.27ZM509.73 230.17L509.555 230.638L509.568 230.643L509.581 230.647L509.73 230.17ZM505.88 229.07L505.753 229.554L505.765 229.557L505.777 229.559L505.88 229.07ZM501.59 228.19L501.512 228.684L501.516 228.684L501.59 228.19ZM492.13 228.74L492.311 229.206L492.322 229.202L492.333 229.197L492.13 228.74ZM491.25 233.25L490.964 233.66L490.964 233.66L491.25 233.25ZM495.43 234.68L495.54 234.192L495.535 234.191L495.43 234.68ZM498.84 235.45L498.952 234.963L498.95 234.962L498.84 235.45ZM513.8 242.16L513.451 242.518L513.46 242.527L513.8 242.16ZM517.81 253.05C517.81 258.478 515.785 262.689 511.739 265.741L512.341 266.539C516.656 263.284 518.81 258.768 518.81 253.05H517.81ZM511.739 265.741C507.682 268.801 501.648 270.37 493.56 270.37V271.37C501.752 271.37 508.038 269.785 512.341 266.539L511.739 265.741ZM493.56 270.37C490.504 270.37 487.672 270.152 485.062 269.717L484.898 270.703C487.569 271.148 490.457 271.37 493.56 271.37V270.37ZM485.062 269.717C482.455 269.282 480.227 268.633 478.37 267.776L477.951 268.684C479.907 269.587 482.225 270.258 484.898 270.703L485.062 269.717ZM478.391 267.786C476.61 266.86 475.202 265.73 474.153 264.4L473.368 265.02C474.518 266.477 476.044 267.693 477.93 268.674L478.391 267.786ZM474.163 264.413C473.206 263.115 472.72 261.571 472.72 259.76H471.72C471.72 261.762 472.261 263.519 473.358 265.007L474.163 264.413ZM472.72 259.76C472.72 258.068 473.072 256.7 473.744 255.625L472.896 255.095C472.101 256.367 471.72 257.932 471.72 259.76H472.72ZM473.751 255.614C474.456 254.415 475.297 253.437 476.269 252.673L475.651 251.887C474.571 252.736 473.651 253.812 472.889 255.106L473.751 255.614ZM475.719 252.718C477.874 253.907 480.32 254.981 483.054 255.942L483.386 254.998C480.694 254.053 478.3 253 476.202 251.842L475.719 252.718ZM483.07 255.947C485.915 256.845 489.157 257.29 492.79 257.29V256.29C489.237 256.29 486.099 255.855 483.371 254.993L483.07 255.947ZM492.79 257.29C495.097 257.29 496.922 256.958 498.205 256.236L497.715 255.364C496.652 255.962 495.03 256.29 492.79 256.29V257.29ZM498.194 256.242C499.55 255.524 500.33 254.499 500.33 253.16H499.33C499.33 254.021 498.864 254.756 497.726 255.358L498.194 256.242ZM500.33 253.16C500.33 251.96 499.802 251 498.788 250.324L498.233 251.156C498.979 251.653 499.33 252.306 499.33 253.16H500.33ZM498.788 250.324C497.818 249.678 496.266 249.187 494.198 248.818L494.022 249.802C496.061 250.166 497.442 250.629 498.233 251.156L498.788 250.324ZM494.208 248.82L490.908 248.16L490.712 249.14L494.012 249.8L494.208 248.82ZM490.906 248.159C484.566 246.92 479.893 245 476.831 242.437L476.189 243.203C479.434 245.92 484.295 247.886 490.714 249.141L490.906 248.159ZM476.841 242.445C473.891 239.847 472.39 236.147 472.39 231.27H471.39C471.39 236.367 472.969 240.367 476.18 243.195L476.841 242.445ZM472.39 231.27C472.39 228.631 472.96 226.257 474.091 224.135L473.209 223.665C471.994 225.943 471.39 228.482 471.39 231.27H472.39ZM474.091 224.135C475.226 222.008 476.821 220.235 478.884 218.812L478.316 217.988C476.126 219.499 474.421 221.392 473.209 223.665L474.091 224.135ZM478.884 218.812C480.957 217.382 483.434 216.266 486.323 215.472L486.058 214.508C483.08 215.327 480.497 216.485 478.316 217.988L478.884 218.812ZM486.32 215.473C489.278 214.679 492.534 214.28 496.09 214.28V213.28C492.46 213.28 489.116 213.687 486.061 214.507L486.32 215.473ZM496.09 214.28C498.777 214.28 501.276 214.498 503.588 214.931L503.772 213.949C501.392 213.502 498.83 213.28 496.09 213.28V214.28ZM503.605 214.934C505.991 215.296 508.034 215.872 509.742 216.655L510.159 215.745C508.347 214.915 506.21 214.318 503.755 213.946L503.605 214.934ZM509.742 216.655C511.44 217.433 512.766 218.45 513.736 219.697L514.525 219.083C513.442 217.69 511.98 216.58 510.159 215.745L509.742 216.655ZM513.744 219.708C514.69 220.857 515.17 222.245 515.17 223.9H516.17C516.17 222.035 515.623 220.417 514.516 219.072L513.744 219.708ZM515.17 223.9C515.17 225.521 514.853 226.904 514.238 228.066L515.122 228.534C515.827 227.202 516.17 225.652 516.17 223.9H515.17ZM514.233 228.076C513.675 229.192 512.946 230.128 512.047 230.888L512.693 231.652C513.701 230.799 514.512 229.754 515.127 228.524L514.233 228.076ZM512.635 230.846C511.995 230.446 511.067 230.064 509.879 229.693L509.581 230.647C510.74 231.009 511.572 231.361 512.105 231.694L512.635 230.846ZM509.906 229.702C508.706 229.252 507.398 228.879 505.983 228.581L505.777 229.559C507.149 229.848 508.408 230.208 509.555 230.638L509.906 229.702ZM506.007 228.586C504.596 228.215 503.148 227.918 501.664 227.696L501.516 228.684C502.965 228.902 504.378 229.192 505.753 229.554L506.007 228.586ZM501.668 227.696C500.254 227.473 498.944 227.36 497.74 227.36V228.36C498.883 228.36 500.14 228.467 501.512 228.684L501.668 227.696ZM497.74 227.36C495.291 227.36 493.34 227.655 491.927 228.283L492.333 229.197C493.56 228.652 495.349 228.36 497.74 228.36V227.36ZM491.949 228.274C491.232 228.553 490.652 228.938 490.251 229.449C489.846 229.968 489.65 230.583 489.65 231.27H490.65C490.65 230.784 490.785 230.391 491.039 230.066C491.299 229.734 491.709 229.44 492.311 229.206L491.949 228.274ZM489.65 231.27C489.65 232.26 490.114 233.065 490.964 233.66L491.537 232.84C490.92 232.409 490.65 231.894 490.65 231.27H489.65ZM490.964 233.66C491.788 234.237 493.272 234.729 495.325 235.169L495.535 234.191C493.482 233.751 492.179 233.29 491.537 232.84L490.964 233.66ZM495.32 235.168L498.73 235.938L498.95 234.962L495.54 234.192L495.32 235.168ZM498.729 235.937C505.738 237.544 510.617 239.754 513.451 242.518L514.149 241.802C511.117 238.846 506.022 236.583 498.952 234.963L498.729 235.937ZM513.46 242.527C516.355 245.21 517.81 248.702 517.81 253.05H518.81C518.81 248.452 517.259 244.684 514.14 241.793L513.46 242.527ZM547.811 254.7L547.527 255.112L547.539 255.12L547.811 254.7ZM556.391 255.69L556.453 256.186L556.468 256.184L556.483 256.181L556.391 255.69ZM559.471 254.92L559.858 254.603L559.64 254.337L559.313 254.446L559.471 254.92ZM561.121 257.67L560.661 257.867L560.67 257.887L560.681 257.907L561.121 257.67ZM558.701 268.01L558.382 267.625L558.375 267.63L558.701 268.01ZM532.741 266.25L532.417 266.631L532.421 266.634L532.741 266.25ZM527.571 204.87L527.439 204.388L527.071 204.488V204.87H527.571ZM530.981 204.21L531.055 204.704L531.065 204.703L531.074 204.701L530.981 204.21ZM543.301 205.53L543.024 205.946L543.033 205.953L543.044 205.959L543.301 205.53ZM546.051 219.72H545.551V220.22H546.051V219.72ZM560.461 219.72L560.9 219.481L560.758 219.22H560.461V219.72ZM561.671 222.8L561.191 222.941L561.196 222.959L561.203 222.976L561.671 222.8ZM546.051 234.02V233.52H545.551V234.02H546.051ZM545.551 250.63C545.551 252.64 546.175 254.182 547.528 255.112L548.094 254.288C547.1 253.605 546.551 252.433 546.551 250.63H545.551ZM547.539 255.12C548.897 255.998 550.728 256.41 552.981 256.41V255.41C550.834 255.41 549.218 255.015 548.082 254.28L547.539 255.12ZM552.981 256.41C554.103 256.41 555.26 256.335 556.453 256.186L556.329 255.194C555.175 255.338 554.059 255.41 552.981 255.41V256.41ZM556.483 256.181C557.673 255.958 558.722 255.697 559.629 255.394L559.313 254.446C558.459 254.73 557.456 254.982 556.299 255.199L556.483 256.181ZM559.084 255.237C559.712 256.004 560.238 256.88 560.661 257.867L561.58 257.473C561.123 256.406 560.55 255.449 559.858 254.603L559.084 255.237ZM560.681 257.907C561.145 258.77 561.391 259.856 561.391 261.19H562.391C562.391 259.737 562.123 258.477 561.561 257.433L560.681 257.907ZM561.391 261.19C561.391 263.829 560.393 265.961 558.382 267.625L559.02 268.395C561.262 266.539 562.391 264.124 562.391 261.19H561.391ZM558.375 267.63C556.466 269.267 552.959 270.15 547.701 270.15V271.15C553.002 271.15 556.829 270.273 559.026 268.39L558.375 267.63ZM547.701 270.15C541.317 270.15 536.461 268.699 533.061 265.866L532.421 266.634C536.061 269.668 541.178 271.15 547.701 271.15V270.15ZM533.065 265.869C529.773 263.068 528.071 258.472 528.071 251.95H527.071C527.071 258.628 528.815 263.565 532.417 266.631L533.065 265.869ZM528.071 251.95V204.87H527.071V251.95H528.071ZM527.702 205.352C528.481 205.14 529.595 204.923 531.055 204.704L530.907 203.716C529.433 203.937 528.274 204.16 527.439 204.388L527.702 205.352ZM531.074 204.701C532.581 204.414 534.163 204.27 535.821 204.27V203.27C534.105 203.27 532.46 203.419 530.887 203.719L531.074 204.701ZM535.821 204.27C538.997 204.27 541.378 204.849 543.024 205.946L543.578 205.114C541.703 203.864 539.098 203.27 535.821 203.27V204.27ZM543.044 205.959C544.642 206.918 545.551 209.061 545.551 212.68H546.551C546.551 208.965 545.626 206.342 543.558 205.101L543.044 205.959ZM545.551 212.68V219.72H546.551V212.68H545.551ZM546.051 220.22H560.461V219.22H546.051V220.22ZM560.022 219.959C560.439 220.725 560.831 221.716 561.191 222.941L562.151 222.659C561.778 221.391 561.362 220.328 560.9 219.481L560.022 219.959ZM561.203 222.976C561.618 224.084 561.831 225.343 561.831 226.76H562.831C562.831 225.243 562.603 223.863 562.139 222.624L561.203 222.976ZM561.831 226.76C561.831 229.265 561.257 230.977 560.217 232.016L560.924 232.724C562.232 231.416 562.831 229.389 562.831 226.76H561.831ZM560.217 232.016C559.231 233.002 557.867 233.52 556.061 233.52V234.52C558.068 234.52 559.71 233.938 560.924 232.724L560.217 232.016ZM556.061 233.52H546.051V234.52H556.061V233.52ZM545.551 234.02V250.63H546.551V234.02H545.551ZM586.919 269L586.758 269.474L586.77 269.477L586.919 269ZM577.239 263.5L576.906 263.873L576.911 263.878L577.239 263.5ZM570.749 254.37L570.288 254.564L570.292 254.571L570.749 254.37ZM570.749 229.07L570.295 228.862L570.293 228.866L570.749 229.07ZM577.019 220.49L577.345 220.87L577.351 220.864L577.019 220.49ZM585.819 215.54L585.968 216.018L585.977 216.014L585.819 215.54ZM606.499 215.65L606.325 216.119L606.328 216.12L606.499 215.65ZM614.749 220.49L614.414 220.861L614.42 220.866L614.749 220.49ZM620.139 227.86L619.681 228.06L619.685 228.07L620.139 227.86ZM620.029 242.93L619.685 242.567L619.685 242.567L620.029 242.93ZM614.199 245.46L614.127 244.965L614.125 244.966L614.199 245.46ZM587.029 249.53L586.955 249.036L586.367 249.124L586.555 249.688L587.029 249.53ZM591.979 255.03L591.756 255.477L591.766 255.482L591.979 255.03ZM609.029 255.69L609.163 256.172L609.172 256.169L609.029 255.69ZM615.629 252.94L615.894 252.516L615.633 252.353L615.369 252.513L615.629 252.94ZM618.599 256.02L619.026 255.759L619.026 255.759L618.599 256.02ZM615.189 267.57L614.957 267.127L614.955 267.128L615.189 267.57ZM607.269 270.1L607.195 269.606L607.195 269.606L607.269 270.1ZM591.319 228.41L591.116 227.953L591.106 227.958L591.319 228.41ZM588.239 230.72L588.608 231.058L588.615 231.051L588.621 231.043L588.239 230.72ZM586.369 233.8L585.901 233.624L585.898 233.633L585.895 233.642L586.369 233.8ZM585.709 237.21L585.21 237.179L585.171 237.805L585.79 237.703L585.709 237.21ZM604.519 234.13L604.6 234.623L605.087 234.544L605.014 234.056L604.519 234.13ZM602.099 229.73L602.462 229.386L602.462 229.386L602.099 229.73ZM599.019 270.26C594.738 270.26 590.756 269.68 587.069 268.523L586.77 269.477C590.563 270.667 594.647 271.26 599.019 271.26V270.26ZM587.08 268.527C583.472 267.3 580.303 265.498 577.567 263.122L576.911 263.878C579.749 266.342 583.033 268.207 586.758 269.473L587.08 268.527ZM577.572 263.127C574.917 260.759 572.794 257.776 571.207 254.169L570.292 254.571C571.931 258.297 574.134 261.401 576.906 263.873L577.572 263.127ZM571.21 254.176C569.701 250.584 568.939 246.362 568.939 241.5H567.939C567.939 246.465 568.717 250.823 570.288 254.564L571.21 254.176ZM568.939 241.5C568.939 236.711 569.701 232.641 571.206 229.274L570.293 228.866C568.717 232.392 567.939 236.609 567.939 241.5H568.939ZM571.204 229.278C572.791 225.815 574.84 223.016 577.345 220.87L576.694 220.11C574.065 222.364 571.934 225.285 570.295 228.862L571.204 229.278ZM577.351 220.864C579.864 218.638 582.735 217.023 585.968 216.017L585.671 215.063C582.304 216.11 579.308 217.795 576.688 220.116L577.351 220.864ZM585.977 216.014C589.227 214.931 592.547 214.39 595.939 214.39V213.39C592.438 213.39 589.012 213.949 585.661 215.066L585.977 216.014ZM595.939 214.39C599.776 214.39 603.235 214.969 606.325 216.119L606.674 215.181C603.457 213.984 599.876 213.39 595.939 213.39V214.39ZM606.328 216.12C609.502 217.274 612.194 218.856 614.414 220.861L615.084 220.119C612.758 218.017 609.95 216.373 606.67 215.18L606.328 216.12ZM614.42 220.866C616.711 222.871 618.464 225.267 619.681 228.06L620.598 227.66C619.322 224.733 617.481 222.216 615.079 220.114L614.42 220.866ZM619.685 228.07C620.973 230.859 621.619 233.904 621.619 237.21H622.619C622.619 233.77 621.946 230.581 620.593 227.65L619.685 228.07ZM621.619 237.21C621.619 239.609 620.952 241.368 619.685 242.567L620.373 243.293C621.894 241.852 622.619 239.797 622.619 237.21H621.619ZM619.685 242.567C618.387 243.797 616.55 244.609 614.127 244.965L614.272 245.955C616.836 245.578 618.885 244.703 620.373 243.293L619.685 242.567ZM614.125 244.966L586.955 249.036L587.103 250.024L614.273 245.954L614.125 244.966ZM586.555 249.688C587.408 252.246 589.156 254.177 591.756 255.477L592.203 254.583C589.816 253.389 588.264 251.654 587.504 249.372L586.555 249.688ZM591.766 255.482C594.337 256.692 597.272 257.29 600.559 257.29V256.29C597.394 256.29 594.608 255.715 592.192 254.578L591.766 255.482ZM600.559 257.29C603.607 257.29 606.476 256.918 609.163 256.172L608.895 255.208C606.303 255.928 603.525 256.29 600.559 256.29V257.29ZM609.172 256.169C611.91 255.355 614.154 254.423 615.889 253.367L615.369 252.513C613.731 253.51 611.575 254.412 608.887 255.211L609.172 256.169ZM615.364 253.364C616.464 254.052 617.402 255.019 618.173 256.281L619.026 255.759C618.184 254.381 617.141 253.295 615.894 252.516L615.364 253.364ZM618.173 256.281C618.934 257.527 619.309 258.83 619.309 260.2H620.309C620.309 258.636 619.878 257.153 619.026 255.759L618.173 256.281ZM619.309 260.2C619.309 261.769 618.944 263.114 618.231 264.252C617.516 265.392 616.434 266.353 614.957 267.127L615.421 268.013C617.024 267.173 618.252 266.1 619.078 264.783C619.904 263.465 620.309 261.931 620.309 260.2H619.309ZM614.955 267.128C612.664 268.346 610.079 269.173 607.195 269.606L607.343 270.594C610.326 270.147 613.022 269.288 615.424 268.012L614.955 267.128ZM607.195 269.606C604.283 270.042 601.558 270.26 599.019 270.26V271.26C601.614 271.26 604.389 271.038 607.343 270.594L607.195 269.606ZM595.939 227.03C594.124 227.03 592.513 227.333 591.116 227.953L591.522 228.867C592.766 228.314 594.234 228.03 595.939 228.03V227.03ZM591.106 227.958C589.802 228.572 588.715 229.384 587.858 230.397L588.621 231.043C589.377 230.15 590.344 229.422 591.532 228.862L591.106 227.958ZM587.871 230.382C587.019 231.312 586.362 232.394 585.901 233.624L586.837 233.976C587.256 232.859 587.847 231.888 588.608 231.058L587.871 230.382ZM585.895 233.642C585.514 234.784 585.286 235.963 585.21 237.179L586.208 237.241C586.279 236.11 586.491 235.016 586.844 233.958L585.895 233.642ZM585.79 237.703L604.6 234.623L604.439 233.637L585.629 236.717L585.79 237.703ZM605.014 234.056C604.774 232.457 603.901 230.9 602.462 229.386L601.737 230.074C603.085 231.493 603.825 232.87 604.025 234.204L605.014 234.056ZM602.462 229.386C600.945 227.789 598.741 227.03 595.939 227.03V228.03C598.564 228.03 600.467 228.738 601.737 230.074L602.462 229.386ZM649.82 268.89L649.964 269.369L650.32 269.262V268.89H649.82ZM646.3 269.55L646.233 269.055L646.23 269.055L646.3 269.55ZM637.06 269.55L636.973 270.042L636.978 270.043L637.06 269.55ZM633.87 268.23L634.17 267.83L634.17 267.83L633.87 268.23ZM631.78 265.59L631.312 265.766L631.319 265.784L631.327 265.801L631.78 265.59ZM632 223.79L631.558 223.556L631.553 223.566L632 223.79ZM634.75 220.49L635.066 220.878L635.066 220.878L634.75 220.49ZM639.04 217.96L639.24 218.419L639.249 218.415L639.04 217.96ZM644.65 215.87L644.792 216.349L644.792 216.349L644.65 215.87ZM650.81 214.55L650.879 215.045L650.887 215.044L650.895 215.043L650.81 214.55ZM665.55 216.09L665.27 216.504L665.28 216.511L665.55 216.09ZM668.19 225.77L668.668 225.917L668.671 225.907L668.19 225.77ZM667.09 228.41V228.91H667.387L667.529 228.649L667.09 228.41ZM662.36 228.63L662.406 229.128L662.406 229.128L662.36 228.63ZM657.63 229.29L657.537 228.799L657.537 228.799L657.63 229.29ZM653.23 230.28L653.339 230.768L653.348 230.766L653.358 230.764L653.23 230.28ZM649.82 231.38L649.611 230.926L649.32 231.06V231.38H649.82ZM649.677 268.411C648.983 268.619 647.842 268.835 646.233 269.055L646.368 270.045C647.985 269.825 649.191 269.601 649.964 269.369L649.677 268.411ZM646.23 269.055C644.715 269.271 643.125 269.38 641.46 269.38V270.38C643.169 270.38 644.806 270.269 646.371 270.045L646.23 269.055ZM641.46 269.38C639.869 269.38 638.431 269.271 637.143 269.057L636.978 270.043C638.33 270.269 639.825 270.38 641.46 270.38V269.38ZM637.147 269.058C635.966 268.849 634.979 268.436 634.17 267.83L633.57 268.63C634.522 269.344 635.661 269.811 636.973 270.042L637.147 269.058ZM634.17 267.83C633.363 267.224 632.716 266.412 632.233 265.379L631.327 265.801C631.872 266.968 632.618 267.916 633.57 268.63L634.17 267.83ZM632.249 265.414C631.837 264.317 631.62 262.879 631.62 261.08H630.62C630.62 262.948 630.844 264.517 631.312 265.766L632.249 265.414ZM631.62 261.08V228.08H630.62V261.08H631.62ZM631.62 228.08C631.62 226.449 631.904 225.101 632.448 224.014L631.553 223.566C630.923 224.826 630.62 226.337 630.62 228.08H631.62ZM632.442 224.024C633.069 222.841 633.941 221.792 635.066 220.878L634.435 220.102C633.213 221.095 632.252 222.246 631.558 223.556L632.442 224.024ZM635.066 220.878C636.197 219.959 637.586 219.138 639.24 218.419L638.841 217.501C637.121 218.249 635.65 219.115 634.435 220.102L635.066 220.878ZM639.249 218.415C640.986 217.618 642.834 216.93 644.792 216.349L644.508 215.391C642.507 215.984 640.615 216.688 638.832 217.505L639.249 218.415ZM644.792 216.349C646.747 215.77 648.776 215.335 650.879 215.045L650.742 214.055C648.591 214.351 646.513 214.797 644.508 215.391L644.792 216.349ZM650.895 215.043C652.994 214.681 655.093 214.5 657.19 214.5V213.5C655.035 213.5 652.88 213.686 650.725 214.057L650.895 215.043ZM657.19 214.5C660.651 214.5 663.327 215.186 665.27 216.504L665.831 215.676C663.667 214.208 660.77 213.5 657.19 213.5V214.5ZM665.28 216.511C667.152 217.714 668.13 219.729 668.13 222.69H669.13C669.13 219.491 668.055 217.106 665.821 215.669L665.28 216.511ZM668.13 222.69C668.13 223.668 667.991 224.649 667.71 225.633L668.671 225.907C668.977 224.838 669.13 223.765 669.13 222.69H668.13ZM667.713 225.623C667.428 226.547 667.074 227.396 666.651 228.171L667.529 228.649C667.987 227.811 668.366 226.9 668.668 225.917L667.713 225.623ZM667.09 227.91C665.535 227.91 663.943 227.984 662.315 228.132L662.406 229.128C664.005 228.983 665.566 228.91 667.09 228.91V227.91ZM662.315 228.132C660.686 228.28 659.093 228.502 657.537 228.799L657.724 229.781C659.247 229.491 660.808 229.273 662.406 229.128L662.315 228.132ZM657.537 228.799C655.986 229.094 654.509 229.427 653.103 229.796L653.358 230.764C654.739 230.4 656.194 230.073 657.724 229.781L657.537 228.799ZM653.122 229.792C651.777 230.091 650.604 230.468 649.611 230.926L650.03 231.834C650.943 231.412 652.044 231.056 653.339 230.768L653.122 229.792ZM649.32 231.38V268.89H650.32V231.38H649.32Z" fill="#FFFAEF"/>
</g>
<defs>
<filter id="filter0_d_1_13" x="323.15" y="97.29" width="243.458" height="100.62" filterUnits="userSpaceOnUse" color-interpolation-filters="sRGB">
<feFlood flood-opacity="0" result="BackgroundImageFix"/>
<feColorMatrix in="SourceAlpha" type="matrix" values="0 0 0 0 0 0 0 0 0 0 0 0 0 0 0 0 0 0 127 0" result="hardAlpha"/>
<feOffset dy="4"/>
<feGaussianBlur stdDeviation="2"/>
<feComposite in2="hardAlpha" operator="out"/>
<feColorMatrix type="matrix" values="0 0 0 0 0 0 0 0 0 0 0 0 0 0 0 0 0 0 0.25 0"/>
<feBlend mode="normal" in2="BackgroundImageFix" result="effect1_dropShadow_1_13"/>
<feBlend mode="normal" in="SourceGraphic" in2="effect1_dropShadow_1_13" result="shape"/>
</filter>
<filter id="filter1_d_1_13" x="321.72" y="201.9" width="350.91" height="76.97" filterUnits="userSpaceOnUse" color-interpolation-filters="sRGB">
<feFlood flood-opacity="0" result="BackgroundImageFix"/>
<feColorMatrix in="SourceAlpha" type="matrix" values="0 0 0 0 0 0 0 0 0 0 0 0 0 0 0 0 0 0 127 0" result="hardAlpha"/>
<feOffset dy="4"/>
<feGaussianBlur stdDeviation="2"/>
<feComposite in2="hardAlpha" operator="out"/>
<feColorMatrix type="matrix" values="0 0 0 0 0 0 0 0 0 0 0 0 0 0 0 0 0 0 0.25 0"/>
<feBlend mode="normal" in2="BackgroundImageFix" result="effect1_dropShadow_1_13"/>
<feBlend mode="normal" in="SourceGraphic" in2="effect1_dropShadow_1_13" result="shape"/>
</filter>
</defs>
</svg>
